<svg id="_x31__x2C_5" enable-background="new 0 0 36 36" height="512" viewBox="0 0 36 36" width="512" xmlns="http://www.w3.org/2000/svg"><path d="m27.623 31.833c-6.917 0-11.667 3.583-15 3.583s-10.333-1.916-10.333-17.249 9.417-17.584 13.083-17.584c17.167 0 24.5 31.25 12.25 31.25z" fill="#efefef"/><g fill="#a4afc1"><path d="m3.821 3.143h1v2h-1z" transform="matrix(.707 -.707 .707 .707 -1.665 4.27)"/><path d="m2.967 7.533h2v1h-2z" transform="matrix(.707 -.707 .707 .707 -4.518 5.158)"/><path d="m7.033 3.467h2v1h-2z" transform="matrix(.707 -.707 .707 .707 -.452 6.842)"/></g><path d="m19.25 11.75-4.5 6.5h2.75l-.75 6 4.5-7.5h-2.75z" fill="#2fdf84"/><path d="m18.628 15.899.622-4.149-4.5 6.5h2.25z" fill="#00b871"/><path d="m19.75 18.25h-2.25l-.75 6 2.842-4.737z" fill="#00b871"/><path d="m16.75 25c-.082 0-.164-.014-.245-.041-.335-.115-.543-.45-.5-.802l.645-5.157h-1.9c-.279 0-.535-.155-.665-.402-.129-.247-.111-.545.048-.774l4.5-6.5c.2-.287.569-.4.893-.271s.517.464.465.809l-.62 4.138h1.879c.27 0 .52.146.653.381.133.234.129.523-.01.755l-4.5 7.5c-.139.231-.386.364-.643.364zm-.568-7.5h1.318c.215 0 .42.093.563.254.142.161.208.376.182.589l-.309 2.475 1.99-3.317h-1.426c-.218 0-.426-.095-.568-.261-.143-.165-.206-.385-.173-.601l.271-1.809z"/><path d="m8.059 30.009-.059-5.25c-.002-.201.076-.394.217-.536.14-.143.333-.223.533-.223h5.25v1.5h-4.492l.05 4.491z"/><path d="m27.25 12h-5.25v-1.5h4.5v-4.5h1.5v5.25c0 .414-.336.75-.75.75z"/><path d="m6.512 21.466c-.34-1.128-.512-2.294-.512-3.466 0-6.617 5.383-12 12-12 3.69 0 7.108 1.653 9.379 4.536l-1.179.928c-1.984-2.519-4.972-3.964-8.2-3.964-5.79 0-10.5 4.71-10.5 10.5 0 1.025.151 2.046.448 3.034z"/><path d="m18 30c-3.69 0-7.108-1.653-9.379-4.536l1.179-.928c1.984 2.519 4.972 3.964 8.2 3.964 5.79 0 10.5-4.71 10.5-10.5 0-1.025-.151-2.046-.448-3.034l1.437-.432c.339 1.128.511 2.294.511 3.466 0 6.617-5.383 12-12 12z"/></svg>