<svg id="_x31__x2C_5" enable-background="new 0 0 36 36" height="512" viewBox="0 0 36 36" width="512" xmlns="http://www.w3.org/2000/svg"><path d="m8.377 4.167c6.917 0 11.667-3.583 15-3.583s10.333 1.916 10.333 17.249-9.417 17.583-13.083 17.583c-17.167.001-24.5-31.249-12.25-31.249z" fill="#efefef"/><path d="m6.375 4.25h1v2h-1z" fill="#a4afc1"/><path d="m3.125 7.25h2v1h-2z" fill="#a4afc1"/><circle cx="12" cy="24" fill="#2fdf84" r="5.25"/><circle cx="26" cy="8" fill="#f3f3f1" r="1.25"/><path d="m22.75 14.25v-.833c0-.92.831-1.667 1.857-1.667h2.786c1.026 0 1.857.746 1.857 1.667v.833z" fill="#f3f3f1"/><path d="m9 24c0-2.512 1.767-4.607 4.125-5.123-.363-.079-.738-.127-1.125-.127-2.899 0-5.25 2.35-5.25 5.25 0 2.899 2.351 5.25 5.25 5.25.387 0 .762-.048 1.125-.128-2.358-.515-4.125-2.61-4.125-5.122z" fill="#00b871"/><path d="m27 8c0-.19.049-.365.125-.526-.2-.425-.625-.724-1.125-.724-.69 0-1.25.56-1.25 1.25s.56 1.25 1.25 1.25c.5 0 .925-.299 1.125-.724-.076-.161-.125-.336-.125-.526z" fill="#d5dbe1"/><path d="m26.857 11.75h-2.25c-1.026 0-1.857.746-1.857 1.667v.833h2.25v-.833c0-.921.831-1.667 1.857-1.667z" fill="#d5dbe1"/><path d="m11.25 25.571h1.5v2.429h-1.5z"/><path d="m12.208 27.071h-2.208v-1.5h2.208c.138 0 .292-.168.292-.411s-.154-.411-.292-.411h-.417c-.988 0-1.792-.857-1.792-1.911s.804-1.911 1.792-1.911h2.209v1.5h-2.208c-.138 0-.292.168-.292.411s.154.411.292.411h.417c.988 0 1.792.857 1.792 1.911s-.805 1.911-1.793 1.911z"/><path d="m11.25 20h1.5v2.429h-1.5z"/><path d="m12 30c-3.309 0-6-2.691-6-6s2.691-6 6-6 6 2.691 6 6-2.691 6-6 6zm0-10.5c-2.481 0-4.5 2.019-4.5 4.5s2.019 4.5 4.5 4.5 4.5-2.019 4.5-4.5-2.019-4.5-4.5-4.5z"/><path d="m26 10c-1.103 0-2-.897-2-2s.897-2 2-2 2 .897 2 2-.897 2-2 2zm0-2.5c-.276 0-.5.224-.5.5s.224.5.5.5.5-.224.5-.5-.224-.5-.5-.5z"/><path d="m30 15h-1.5v-1.583c0-.505-.497-.917-1.107-.917h-2.786c-.61 0-1.107.411-1.107.917v1.583h-1.5v-1.583c0-1.333 1.169-2.417 2.607-2.417h2.786c1.438 0 2.607 1.084 2.607 2.417z"/><path d="m22.168 30.308-1.988-2.319c-.241-.281-.241-.695 0-.977l1.988-2.319 1.139.976-1.57 1.832 1.57 1.832z"/><path d="m24.25 28.25h-3.75v-1.5h3.75c.689 0 1.25-.561 1.25-1.25v-7.25h1.5v7.25c0 1.517-1.233 2.75-2.75 2.75z"/><path d="m16.832 11.308-1.139-.976 1.57-1.832-1.57-1.832 1.139-.976 1.988 2.319c.241.281.241.695 0 .977z"/><path d="m10.5 15h-1.5v-4.5c0-1.517 1.233-2.75 2.75-2.75h6.75v1.5h-6.75c-.689 0-1.25.561-1.25 1.25z"/></svg>